<svg width="32" height="40" viewBox="0 0 32 40" fill="none" xmlns="http://www.w3.org/2000/svg">
<rect width="32" height="40" fill="#F5F5F5"/>
<g id="&#208;&#148;&#208;&#184;&#208;&#183;&#208;&#176;&#208;&#185;&#208;&#189;" clip-path="url(#clip0_37_5)">
<rect width="1920" height="3375" transform="translate(-523 -91)" fill="white"/>
<g id="&#208;&#168;&#208;&#176;&#208;&#191;&#208;&#186;&#208;&#176;" clip-path="url(#clip1_37_5)">
<g id="&#208;&#168;&#208;&#176;&#208;&#191;&#208;&#186;&#208;&#176; ">
<rect width="1920" height="165" transform="translate(-523 -91)" fill="white"/>
<g id="Group 91">
<g id="Left">
<g id="Adress, email" clip-path="url(#clip2_37_5)">
<g id="Adress">
<g id="icon" clip-path="url(#clip3_37_5)">
<g id="Icon">
<path id="Facebook Places" d="M29.1267 9.95559C28.9843 9.42197 28.6952 8.85337 28.4813 8.35555C25.9218 2.20444 20.3293 0 15.8137 0C9.76867 0 3.1108 4.05344 2.22192 12.4085V14.1155C2.22192 14.1868 2.24648 14.8267 2.28135 15.1468C2.77964 19.1286 5.92159 23.3604 8.26814 27.3422C10.7927 31.6084 13.4123 35.805 16.0076 39.9999C17.6079 37.2624 19.2024 34.4889 20.7663 31.8223C21.1925 31.0397 21.6873 30.2576 22.114 29.5106C22.3983 29.0132 22.9416 28.5159 23.1899 28.0531C25.7143 23.4312 29.7777 18.7735 29.7777 14.1867V12.3023C29.7778 11.8051 29.1614 10.0628 29.1267 9.95559ZM15.9243 18.5247C14.1474 18.5247 12.2024 17.6362 11.2424 15.1824C11.0994 14.7918 11.1109 14.009 11.1109 13.9373V12.8351C11.1109 9.70701 13.767 8.2845 16.0776 8.2845C18.9222 8.2845 21.1223 10.5604 21.1223 13.405C21.1223 16.2496 18.769 18.5247 15.9243 18.5247Z" fill="#11263A"/>
</g>
</g>
</g>
</g>
</g>
</g>
</g>
</g>
</g>
<defs>
<clipPath id="clip0_37_5">
<rect width="1920" height="3375" fill="white" transform="translate(-523 -91)"/>
</clipPath>
<clipPath id="clip1_37_5">
<rect width="1920" height="165" fill="white" transform="translate(-523 -91)"/>
</clipPath>
<clipPath id="clip2_37_5">
<rect width="32" height="43" fill="white" transform="translate(0 -3)"/>
</clipPath>
<clipPath id="clip3_37_5">
<rect width="32" height="43" fill="white" transform="translate(0 -3)"/>
</clipPath>
</defs>
</svg>
