<svg width="26" height="30" viewBox="0 0 26 30" fill="none" xmlns="http://www.w3.org/2000/svg">
<path d="M19.767 19.8451C18.9175 18.8775 17.8571 18.8775 17.0131 19.8451C16.3692 20.5818 15.7254 21.3185 15.0924 22.0676C14.9192 22.2737 14.7731 22.3174 14.5621 22.18C14.1455 21.9178 13.7019 21.7055 13.3015 21.4184C11.4349 20.0636 9.87127 18.3218 8.48619 16.3616C7.79907 15.3876 7.18769 14.3451 6.76026 13.1714C6.67369 12.9341 6.68993 12.7781 6.85765 12.5845C7.50149 11.8666 8.1291 11.1299 8.76213 10.3933C9.64403 9.3694 9.64403 8.17075 8.75672 7.14065C8.25355 6.55381 7.75037 5.97946 7.2472 5.39262C6.7278 4.79329 6.21381 4.18772 5.68899 3.59464C4.83955 2.63946 3.7791 2.63946 2.93507 3.60088C2.28582 4.33755 1.66362 5.09295 1.00354 5.81714C0.392164 6.48514 0.0837679 7.30297 0.0188426 8.25815C-0.083956 9.81265 0.246081 11.2798 0.71138 12.7094C1.66362 15.6686 3.11362 18.2969 4.87201 20.7067C7.2472 23.9655 10.0823 26.5439 13.3989 28.4043C14.8922 29.2408 16.4396 29.8839 18.1222 29.99C19.28 30.0649 20.2864 29.7278 21.0925 28.6852C21.6444 27.9735 22.2666 27.3242 22.8509 26.6438C23.7166 25.6324 23.722 24.4088 22.8618 23.4099C21.8338 22.2175 20.8004 21.0313 19.767 19.8451Z" fill="#11263A"/>
<path d="M18.7339 14.8713L20.7304 14.478C20.4166 12.3617 19.5509 10.4451 18.2361 8.92177C16.8457 7.31732 15.0873 6.30596 13.1503 5.99381L12.869 8.30996C14.3677 8.55343 15.7311 9.33381 16.8078 10.5762C17.825 11.7498 18.4904 13.2357 18.7339 14.8713Z" fill="#11263A"/>
<path d="M21.8556 4.85704C19.5507 2.19753 16.6345 0.518168 13.4153 0L13.134 2.31615C15.9149 2.76564 18.4362 4.22026 20.4272 6.51144C22.3155 8.69024 23.5545 11.4434 24.0035 14.4712L26 14.0779C25.4752 10.5694 24.0414 7.38545 21.8556 4.85704Z" fill="#11263A"/>
</svg>
